<?xml version="1.0" encoding="UTF-8"?>
<!DOCTYPE svg PUBLIC "-//W3C//DTD SVG 1.1//EN" "http://www.w3.org/Graphics/SVG/1.1/DTD/svg11.dtd">
<svg xmlns="http://www.w3.org/2000/svg" style="background: transparent; background-color: transparent; color-scheme: light dark;" xmlns:xlink="http://www.w3.org/1999/xlink" version="1.1" width="1182px" height="342px" viewBox="0 0 1182 342"><defs/><g><g data-cell-id="0"><g data-cell-id="1"><g data-cell-id="2"><g transform="translate(0.5,0.5)"><rect x="26" y="0" width="180" height="50" rx="7.5" ry="7.5" fill="#4472c4" stroke="#2f528f" pointer-events="all" style="fill: light-dark(rgb(68, 114, 196), rgb(106, 146, 216)); stroke: light-dark(rgb(47, 82, 143), rgb(142, 172, 225));"/></g><g><g fill="#FFFFFF" font-family="Helvetica" font-weight="bold" text-anchor="middle" font-size="16px" style="fill: light-dark(rgb(255, 255, 255), rgb(18, 18, 18));"><text x="116" y="32">Tier 1（公式・標準化）</text></g></g></g><g data-cell-id="3"><g transform="translate(0.5,0.5)"><ellipse cx="66" cy="100" rx="60" ry="20" fill="#4472c4" stroke="#2f528f" pointer-events="all" style="fill: light-dark(rgb(68, 114, 196), rgb(106, 146, 216)); stroke: light-dark(rgb(47, 82, 143), rgb(142, 172, 225));"/></g><g><g fill="#FFFFFF" font-family="Helvetica" text-anchor="middle" font-size="12px" style="fill: light-dark(rgb(255, 255, 255), rgb(18, 18, 18));"><text x="66" y="105">Python公式ドキュメント</text></g></g></g><g data-cell-id="4"><g transform="translate(0.5,0.5)"><ellipse cx="206" cy="100" rx="60" ry="20" fill="#4472c4" stroke="#2f528f" pointer-events="all" style="fill: light-dark(rgb(68, 114, 196), rgb(106, 146, 216)); stroke: light-dark(rgb(47, 82, 143), rgb(142, 172, 225));"/></g><g><g fill="#FFFFFF" font-family="Helvetica" text-anchor="middle" font-size="12px" style="fill: light-dark(rgb(255, 255, 255), rgb(18, 18, 18));"><text x="206" y="105">PyTorch公式</text></g></g></g><g data-cell-id="5"><g transform="translate(0.5,0.5)"><ellipse cx="66" cy="160" rx="60" ry="20" fill="#4472c4" stroke="#2f528f" pointer-events="all" style="fill: light-dark(rgb(68, 114, 196), rgb(106, 146, 216)); stroke: light-dark(rgb(47, 82, 143), rgb(142, 172, 225));"/></g><g><g fill="#FFFFFF" font-family="Helvetica" text-anchor="middle" font-size="12px" style="fill: light-dark(rgb(255, 255, 255), rgb(18, 18, 18));"><text x="66" y="165">TypeScript公式</text></g></g></g><g data-cell-id="6"><g transform="translate(0.5,0.5)"><ellipse cx="206" cy="160" rx="60" ry="20" fill="#4472c4" stroke="#2f528f" pointer-events="all" style="fill: light-dark(rgb(68, 114, 196), rgb(106, 146, 216)); stroke: light-dark(rgb(47, 82, 143), rgb(142, 172, 225));"/></g><g><g fill="#FFFFFF" font-family="Helvetica" text-anchor="middle" font-size="12px" style="fill: light-dark(rgb(255, 255, 255), rgb(18, 18, 18));"><text x="206" y="165">Rust公式</text></g></g></g><g data-cell-id="7"><g transform="translate(0.5,0.5)"><ellipse cx="136" cy="220" rx="60" ry="20" fill="#4472c4" stroke="#2f528f" pointer-events="all" style="fill: light-dark(rgb(68, 114, 196), rgb(106, 146, 216)); stroke: light-dark(rgb(47, 82, 143), rgb(142, 172, 225));"/></g><g><g fill="#FFFFFF" font-family="Helvetica" text-anchor="middle" font-size="12px" style="fill: light-dark(rgb(255, 255, 255), rgb(18, 18, 18));"><text x="136" y="225">LangChain公式</text></g></g></g><g data-cell-id="8"><g transform="translate(0.5,0.5)"><rect x="366" y="0" width="180" height="50" rx="7.5" ry="7.5" fill="#70ad47" stroke="#385723" pointer-events="all" style="fill: light-dark(rgb(112, 173, 71), rgb(70, 123, 35)); stroke: light-dark(rgb(56, 87, 35), rgb(153, 180, 135));"/></g><g><g fill="#FFFFFF" font-family="Helvetica" font-weight="bold" text-anchor="middle" font-size="16px" style="fill: light-dark(rgb(255, 255, 255), rgb(18, 18, 18));"><text x="456" y="32">Tier 2（企業・学術）</text></g></g></g><g data-cell-id="9"><g transform="translate(0.5,0.5)"><ellipse cx="416" cy="100" rx="70" ry="20" fill="#70ad47" stroke="#385723" pointer-events="all" style="fill: light-dark(rgb(112, 173, 71), rgb(70, 123, 35)); stroke: light-dark(rgb(56, 87, 35), rgb(153, 180, 135));"/></g><g><g fill="#FFFFFF" font-family="Helvetica" text-anchor="middle" font-size="12px" style="fill: light-dark(rgb(255, 255, 255), rgb(18, 18, 18));"><text x="416" y="105">Gartner AI Hype Cycle</text></g></g></g><g data-cell-id="10"><g transform="translate(0.5,0.5)"><ellipse cx="576" cy="100" rx="70" ry="20" fill="#70ad47" stroke="#385723" pointer-events="all" style="fill: light-dark(rgb(112, 173, 71), rgb(70, 123, 35)); stroke: light-dark(rgb(56, 87, 35), rgb(153, 180, 135));"/></g><g><g fill="#FFFFFF" font-family="Helvetica" text-anchor="middle" font-size="12px" style="fill: light-dark(rgb(255, 255, 255), rgb(18, 18, 18));"><text x="576" y="105">Stack Overflow調査</text></g></g></g><g data-cell-id="11"><g transform="translate(0.5,0.5)"><ellipse cx="416" cy="160" rx="70" ry="20" fill="#70ad47" stroke="#385723" pointer-events="all" style="fill: light-dark(rgb(112, 173, 71), rgb(70, 123, 35)); stroke: light-dark(rgb(56, 87, 35), rgb(153, 180, 135));"/></g><g><g fill="#FFFFFF" font-family="Helvetica" text-anchor="middle" font-size="12px" style="fill: light-dark(rgb(255, 255, 255), rgb(18, 18, 18));"><text x="416" y="165">O’Reilly AI Adoption</text></g></g></g><g data-cell-id="12"><g transform="translate(0.5,0.5)"><ellipse cx="576" cy="160" rx="70" ry="20" fill="#70ad47" stroke="#385723" pointer-events="all" style="fill: light-dark(rgb(112, 173, 71), rgb(70, 123, 35)); stroke: light-dark(rgb(56, 87, 35), rgb(153, 180, 135));"/></g><g><g fill="#FFFFFF" font-family="Helvetica" text-anchor="middle" font-size="12px" style="fill: light-dark(rgb(255, 255, 255), rgb(18, 18, 18));"><text x="576" y="165">学術論文（arXiv）</text></g></g></g><g data-cell-id="13"><g transform="translate(0.5,0.5)"><rect x="706" y="0" width="200" height="50" rx="7.5" ry="7.5" fill="#ed7d31" stroke="#a34a13" pointer-events="all" style="fill: light-dark(rgb(237, 125, 49), rgb(195, 98, 33)); stroke: light-dark(rgb(163, 74, 19), rgb(225, 148, 101));"/></g><g><g fill="#FFFFFF" font-family="Helvetica" font-weight="bold" text-anchor="middle" font-size="16px" style="fill: light-dark(rgb(255, 255, 255), rgb(18, 18, 18));"><text x="806" y="32">Tier 3（業界記事・ブログ）</text></g></g></g><g data-cell-id="14"><g transform="translate(0.5,0.5)"><ellipse cx="786" cy="100" rx="60" ry="20" fill="#ed7d31" stroke="#a34a13" pointer-events="all" style="fill: light-dark(rgb(237, 125, 49), rgb(195, 98, 33)); stroke: light-dark(rgb(163, 74, 19), rgb(225, 148, 101));"/></g><g><g fill="#FFFFFF" font-family="Helvetica" text-anchor="middle" font-size="12px" style="fill: light-dark(rgb(255, 255, 255), rgb(18, 18, 18));"><text x="786" y="105">The New Stack</text></g></g></g><g data-cell-id="15"><g transform="translate(0.5,0.5)"><ellipse cx="926" cy="100" rx="60" ry="20" fill="#ed7d31" stroke="#a34a13" pointer-events="all" style="fill: light-dark(rgb(237, 125, 49), rgb(195, 98, 33)); stroke: light-dark(rgb(163, 74, 19), rgb(225, 148, 101));"/></g><g><g fill="#FFFFFF" font-family="Helvetica" text-anchor="middle" font-size="12px" style="fill: light-dark(rgb(255, 255, 255), rgb(18, 18, 18));"><text x="926" y="105">Zenn記事</text></g></g></g><g data-cell-id="16"><g transform="translate(0.5,0.5)"><rect x="986" y="0" width="180" height="50" rx="7.5" ry="7.5" fill="#cccccc" stroke="#888888" pointer-events="all" style="fill: light-dark(rgb(204, 204, 204), rgb(62, 62, 62)); stroke: light-dark(rgb(136, 136, 136), rgb(120, 120, 120));"/></g><g><g fill="#666666" font-family="Helvetica" font-weight="bold" text-anchor="middle" font-size="16px" style="fill: light-dark(rgb(102, 102, 102), rgb(149, 149, 149));"><text x="1076" y="32">Tier 4（コミュニティ/SNS）</text></g></g></g><g data-cell-id="17"><g transform="translate(0.5,0.5)"><ellipse cx="1076" cy="100" rx="50" ry="20" fill="#cccccc" stroke="#888888" pointer-events="all" style="fill: light-dark(rgb(204, 204, 204), rgb(62, 62, 62)); stroke: light-dark(rgb(136, 136, 136), rgb(120, 120, 120));"/></g><g><g fill="#666666" font-family="Helvetica" text-anchor="middle" font-size="12px" style="fill: light-dark(rgb(102, 102, 102), rgb(149, 149, 149));"><text x="1076" y="105">（該当なし）</text></g></g></g><g data-cell-id="18"><g transform="translate(0.5,0.5)"><rect x="6" y="280" width="320" height="60" rx="9" ry="9" fill="#ffffff" stroke="#888888" pointer-events="all" style="fill: light-dark(rgb(255, 255, 255), rgb(18, 18, 18)); stroke: light-dark(rgb(136, 136, 136), rgb(120, 120, 120));"/></g><g><g fill="#000000" font-family="Helvetica" text-anchor="middle" font-size="12px" style="fill: light-dark(rgb(0, 0, 0), rgb(237, 237, 237));"><text x="166" y="315">信頼度凡例</text></g></g></g><g data-cell-id="19"><g transform="translate(0.5,0.5)"><rect x="26" y="310" width="80" height="20" fill="none" stroke="none" pointer-events="all"/></g><g><g fill="#4472C4" font-family="Helvetica" font-size="12px" style="fill: light-dark(rgb(68, 114, 196), rgb(106, 146, 216));"><text x="28" y="328">■ High（青）</text></g></g></g><g data-cell-id="20"><g transform="translate(0.5,0.5)"><rect x="126" y="310" width="100" height="20" fill="none" stroke="none" pointer-events="all"/></g><g><g fill="#70AD47" font-family="Helvetica" font-size="12px" style="fill: light-dark(rgb(112, 173, 71), rgb(70, 123, 35));"><text x="128" y="328">■ Medium（緑）</text></g></g></g><g data-cell-id="21"><g transform="translate(0.5,0.5)"><rect x="246" y="310" width="100" height="20" fill="none" stroke="none" pointer-events="all"/></g><g><g fill="#ED7D31" font-family="Helvetica" font-size="12px" style="fill: light-dark(rgb(237, 125, 49), rgb(195, 98, 33));"><text x="248" y="328">■ Low（オレンジ）</text></g></g></g><g data-cell-id="e1"><g transform="translate(0.5,0.5)"><path d="M 116 50 L 116 57.5 Q 116 65 106 65 L 76 65 Q 66 65 66 68.44 L 66 71.88" fill="none" stroke="#4472c4" stroke-miterlimit="10" pointer-events="stroke" style="stroke: light-dark(rgb(68, 114, 196), rgb(106, 146, 216));"/><path d="M 66 78.88 L 62.5 71.88 L 69.5 71.88 Z" fill="#4472c4" stroke="#4472c4" stroke-miterlimit="10" pointer-events="all" style="fill: light-dark(rgb(68, 114, 196), rgb(106, 146, 216)); stroke: light-dark(rgb(68, 114, 196), rgb(106, 146, 216));"/></g></g><g data-cell-id="e2"><g transform="translate(0.5,0.5)"><path d="M 116 50 L 116 57.5 Q 116 65 126 65 L 196 65 Q 206 65 206 68.44 L 206 71.88" fill="none" stroke="#4472c4" stroke-miterlimit="10" pointer-events="stroke" style="stroke: light-dark(rgb(68, 114, 196), rgb(106, 146, 216));"/><path d="M 206 78.88 L 202.5 71.88 L 209.5 71.88 Z" fill="#4472c4" stroke="#4472c4" stroke-miterlimit="10" pointer-events="all" style="fill: light-dark(rgb(68, 114, 196), rgb(106, 146, 216)); stroke: light-dark(rgb(68, 114, 196), rgb(106, 146, 216));"/></g></g><g data-cell-id="e3"><g transform="translate(0.5,0.5)"><path d="M 116 50 L 116 85 Q 116 95 106 95 L 76 95 Q 66 95 66 105 L 66 131.88" fill="none" stroke="#4472c4" stroke-miterlimit="10" pointer-events="stroke" style="stroke: light-dark(rgb(68, 114, 196), rgb(106, 146, 216));"/><path d="M 66 138.88 L 62.5 131.88 L 69.5 131.88 Z" fill="#4472c4" stroke="#4472c4" stroke-miterlimit="10" pointer-events="all" style="fill: light-dark(rgb(68, 114, 196), rgb(106, 146, 216)); stroke: light-dark(rgb(68, 114, 196), rgb(106, 146, 216));"/></g></g><g data-cell-id="e4"><g transform="translate(0.5,0.5)"><path d="M 116 50 L 116 85 Q 116 95 126 95 L 196 95 Q 206 95 206 105 L 206 131.88" fill="none" stroke="#4472c4" stroke-miterlimit="10" pointer-events="stroke" style="stroke: light-dark(rgb(68, 114, 196), rgb(106, 146, 216));"/><path d="M 206 138.88 L 202.5 131.88 L 209.5 131.88 Z" fill="#4472c4" stroke="#4472c4" stroke-miterlimit="10" pointer-events="all" style="fill: light-dark(rgb(68, 114, 196), rgb(106, 146, 216)); stroke: light-dark(rgb(68, 114, 196), rgb(106, 146, 216));"/></g></g><g data-cell-id="e5"><g transform="translate(0.5,0.5)"><path d="M 116 50 L 116 115 Q 116 125 126 125 L 131 125 Q 136 125 136 135 L 136 191.88" fill="none" stroke="#4472c4" stroke-miterlimit="10" pointer-events="stroke" style="stroke: light-dark(rgb(68, 114, 196), rgb(106, 146, 216));"/><path d="M 136 198.88 L 132.5 191.88 L 139.5 191.88 Z" fill="#4472c4" stroke="#4472c4" stroke-miterlimit="10" pointer-events="all" style="fill: light-dark(rgb(68, 114, 196), rgb(106, 146, 216)); stroke: light-dark(rgb(68, 114, 196), rgb(106, 146, 216));"/></g></g><g data-cell-id="e6"><g transform="translate(0.5,0.5)"><path d="M 456 50 L 456 57.5 Q 456 65 446 65 L 426 65 Q 416 65 416 68.44 L 416 71.88" fill="none" stroke="#70ad47" stroke-miterlimit="10" pointer-events="stroke" style="stroke: light-dark(rgb(112, 173, 71), rgb(70, 123, 35));"/><path d="M 416 78.88 L 412.5 71.88 L 419.5 71.88 Z" fill="#70ad47" stroke="#70ad47" stroke-miterlimit="10" pointer-events="all" style="fill: light-dark(rgb(112, 173, 71), rgb(70, 123, 35)); stroke: light-dark(rgb(112, 173, 71), rgb(70, 123, 35));"/></g></g><g data-cell-id="e7"><g transform="translate(0.5,0.5)"><path d="M 456 50 L 456 57.5 Q 456 65 466 65 L 566 65 Q 576 65 576 68.44 L 576 71.88" fill="none" stroke="#70ad47" stroke-miterlimit="10" pointer-events="stroke" style="stroke: light-dark(rgb(112, 173, 71), rgb(70, 123, 35));"/><path d="M 576 78.88 L 572.5 71.88 L 579.5 71.88 Z" fill="#70ad47" stroke="#70ad47" stroke-miterlimit="10" pointer-events="all" style="fill: light-dark(rgb(112, 173, 71), rgb(70, 123, 35)); stroke: light-dark(rgb(112, 173, 71), rgb(70, 123, 35));"/></g></g><g data-cell-id="e8"><g transform="translate(0.5,0.5)"><path d="M 456 50 L 456 85 Q 456 95 446 95 L 426 95 Q 416 95 416 105 L 416 131.88" fill="none" stroke="#70ad47" stroke-miterlimit="10" pointer-events="stroke" style="stroke: light-dark(rgb(112, 173, 71), rgb(70, 123, 35));"/><path d="M 416 138.88 L 412.5 131.88 L 419.5 131.88 Z" fill="#70ad47" stroke="#70ad47" stroke-miterlimit="10" pointer-events="all" style="fill: light-dark(rgb(112, 173, 71), rgb(70, 123, 35)); stroke: light-dark(rgb(112, 173, 71), rgb(70, 123, 35));"/></g></g><g data-cell-id="e9"><g transform="translate(0.5,0.5)"><path d="M 456 50 L 456 85 Q 456 95 466 95 L 566 95 Q 576 95 576 105 L 576 131.88" fill="none" stroke="#70ad47" stroke-miterlimit="10" pointer-events="stroke" style="stroke: light-dark(rgb(112, 173, 71), rgb(70, 123, 35));"/><path d="M 576 138.88 L 572.5 131.88 L 579.5 131.88 Z" fill="#70ad47" stroke="#70ad47" stroke-miterlimit="10" pointer-events="all" style="fill: light-dark(rgb(112, 173, 71), rgb(70, 123, 35)); stroke: light-dark(rgb(112, 173, 71), rgb(70, 123, 35));"/></g></g><g data-cell-id="e10"><g transform="translate(0.5,0.5)"><path d="M 806 50 L 806 57.5 Q 806 65 796 65 L 791 65 Q 786 65 786 68.44 L 786 71.88" fill="none" stroke="#ed7d31" stroke-miterlimit="10" pointer-events="stroke" style="stroke: light-dark(rgb(237, 125, 49), rgb(195, 98, 33));"/><path d="M 786 78.88 L 782.5 71.88 L 789.5 71.88 Z" fill="#ed7d31" stroke="#ed7d31" stroke-miterlimit="10" pointer-events="all" style="fill: light-dark(rgb(237, 125, 49), rgb(195, 98, 33)); stroke: light-dark(rgb(237, 125, 49), rgb(195, 98, 33));"/></g></g><g data-cell-id="e11"><g transform="translate(0.5,0.5)"><path d="M 806 50 L 806 57.5 Q 806 65 816 65 L 916 65 Q 926 65 926 68.44 L 926 71.88" fill="none" stroke="#ed7d31" stroke-miterlimit="10" pointer-events="stroke" style="stroke: light-dark(rgb(237, 125, 49), rgb(195, 98, 33));"/><path d="M 926 78.88 L 922.5 71.88 L 929.5 71.88 Z" fill="#ed7d31" stroke="#ed7d31" stroke-miterlimit="10" pointer-events="all" style="fill: light-dark(rgb(237, 125, 49), rgb(195, 98, 33)); stroke: light-dark(rgb(237, 125, 49), rgb(195, 98, 33));"/></g></g><g data-cell-id="e12"><g transform="translate(0.5,0.5)"><path d="M 1076 50 L 1076 71.88" fill="none" stroke="#cccccc" stroke-miterlimit="10" pointer-events="stroke" style="stroke: light-dark(rgb(204, 204, 204), rgb(62, 62, 62));"/><path d="M 1076 78.88 L 1072.5 71.88 L 1079.5 71.88 Z" fill="#cccccc" stroke="#cccccc" stroke-miterlimit="10" pointer-events="all" style="fill: light-dark(rgb(204, 204, 204), rgb(62, 62, 62)); stroke: light-dark(rgb(204, 204, 204), rgb(62, 62, 62));"/></g></g></g></g></g></svg>